<?xml version="1.0" encoding="UTF-8"?>
<svg xmlns="http://www.w3.org/2000/svg" xmlns:xlink="http://www.w3.org/1999/xlink" viewBox="0 0 128 128" width="128px" height="128px">
<g id="surface3852387">
<path style=" stroke:none;fill-rule:nonzero;fill:rgb(100%,100%,100%);fill-opacity:1;" d="M 104.640625 3.039062 L 23.359375 3.039062 C 12.136719 3.039062 3.039062 12.136719 3.039062 23.359375 L 3.039062 104.640625 C 3.039062 115.863281 12.136719 124.960938 23.359375 124.960938 L 104.640625 124.960938 C 115.863281 124.960938 124.960938 115.863281 124.960938 104.640625 L 124.960938 23.359375 C 124.960938 12.136719 115.863281 3.039062 104.640625 3.039062 Z M 43.679688 102.101562 L 30.980469 102.101562 L 30.980469 51.300781 L 43.679688 51.300781 Z M 43.753906 41.164062 C 42.109375 42.839844 39.964844 43.679688 37.328125 43.679688 C 34.722656 43.679688 32.59375 42.8125 30.933594 41.082031 C 29.269531 39.347656 28.441406 37.222656 28.441406 34.707031 C 28.441406 32.117188 29.269531 30.003906 30.933594 28.363281 C 32.59375 26.71875 34.722656 25.898438 37.328125 25.898438 C 39.964844 25.898438 42.109375 26.71875 43.753906 28.359375 C 45.398438 30.003906 46.21875 32.117188 46.21875 34.707031 C 46.21875 37.335938 45.398438 39.488281 43.753906 41.164062 Z M 102.101562 102.101562 L 89.398438 102.101562 L 89.398438 73.871094 C 89.398438 66 84.863281 61.460938 79.238281 61.460938 C 76.53125 61.460938 73.464844 63.105469 71.707031 65.191406 C 69.953125 67.277344 69.078125 69.921875 69.078125 73.128906 L 69.078125 102.101562 L 56.378906 102.101562 L 56.378906 51.300781 L 69.078125 51.300781 L 69.078125 59.335938 L 69.277344 59.335938 C 73.015625 53.152344 78.457031 50.082031 85.601562 50.058594 C 95.75 50.03125 102.101562 57.648438 102.101562 70.996094 Z M 102.101562 102.101562 "/>
</g>
</svg>
